<?xml version="1.0" encoding="UTF-8"?>
<svg id="Calque_1" data-name="Calque 1" xmlns="http://www.w3.org/2000/svg" xmlns:xlink="http://www.w3.org/1999/xlink" viewBox="0 0 678 678">
  <defs>
    <style>
      .cls-1 {
        fill: url(#Dégradé_sans_nom_7);
      }

      .cls-1, .cls-2 {
        stroke-width: 0px;
      }

      .cls-2 {
        fill: #fff;
      }
    </style>
    <radialGradient id="Dégradé_sans_nom_7" data-name="Dégradé sans nom 7" cx="339" cy="339" fx="339" fy="339" r="339" gradientUnits="userSpaceOnUse">
      <stop offset="0" stop-color="#011f2d"/>
      <stop offset="1" stop-color="#710bd3"/>
    </radialGradient>
  </defs>
  <circle class="cls-1" cx="339" cy="339" r="339"/>
  <path class="cls-2" d="m406.96,445.77h-135.97c-4.2,0-7.9,2.76-9.09,6.79l-30.45,102.66c-1.19,4.03-4.89,6.79-9.09,6.79h-37.26c-6.43,0-11-6.27-9.03-12.39L313.04,124.39c1.26-3.92,4.91-6.58,9.03-6.58h34.08c4.12,0,7.76,2.65,9.02,6.57l137.26,425.22c1.98,6.12-2.59,12.4-9.02,12.4h-37.28c-4.18,0-7.87-2.74-9.08-6.74l-31.01-102.74c-1.21-4-4.9-6.74-9.08-6.74Zm-115.68-47.9h95.63c6.35,0,10.91-6.13,9.08-12.21l-47.93-159.46c-2.71-9.01-15.47-9-18.17.01l-47.69,159.46c-1.82,6.08,2.74,12.2,9.09,12.2Z"/>
</svg>