<?xml version="1.0" encoding="UTF-8"?>
<svg id="_ÎÓÈ_1" data-name="—ÎÓÈ 1" xmlns="http://www.w3.org/2000/svg" viewBox="0 0 1766.35 2358.61">
  <defs>
    <style>
      .cls-1 {
        fill: #fff;
        stroke-width: 0px;
      }
    </style>
  </defs>
  <path class="cls-1" d="m68.25,1108.82c78.6,68.17,197.7,64.91,272.41-9.81l341.4-341.4c.23-.23.62-.07.62.25v1396.17c0,109.21,85.62,201.69,194.79,204.5,112.91,2.91,205.35-87.75,205.35-200V757.86c0-.32.39-.48.62-.25l337.78,337.78c83.49,83.49,219,82.29,296.37-6.9,68.17-78.6,64.91-197.7-9.81-272.41L898.01,6.33c-8.44-8.44-22.11-8.44-30.55,0L61.34,812.45c-83.49,83.49-82.29,219,6.91,296.37Z"/>
</svg>